<mxfile host="65bd71144e">
    <diagram id="Q3wMs9CLAD64km3y2_Gk" name="Page-1">
        <mxGraphModel dx="2177" dy="838" grid="1" gridSize="10" guides="1" tooltips="1" connect="1" arrows="1" fold="1" page="1" pageScale="1" pageWidth="850" pageHeight="1100" math="0" shadow="0">
            <root>
                <mxCell id="0"/>
                <mxCell id="1" parent="0"/>
                <mxCell id="2" value="&lt;b&gt;First class&lt;/b&gt;&lt;br&gt;leaveNegReview = 80&lt;br&gt;refuseMove = 50&lt;br&gt;violentFlyer = 1" style="whiteSpace=wrap;html=1;" parent="1" vertex="1">
                    <mxGeometry x="160" y="130" width="290" height="80" as="geometry"/>
                </mxCell>
                <mxCell id="3" value="&lt;b&gt;Business class&lt;br&gt;&lt;/b&gt;leaveNegReview = 70&lt;br&gt;refuseMove = 30&lt;br&gt;violentFlyer = 2&lt;b&gt;&lt;br&gt;&lt;/b&gt;" style="whiteSpace=wrap;html=1;" parent="1" vertex="1">
                    <mxGeometry x="160" y="220" width="290" height="90" as="geometry"/>
                </mxCell>
                <mxCell id="4" value="&lt;b&gt;&lt;font style=&quot;font-size: 14px&quot;&gt;Flight class&lt;/font&gt;&lt;br&gt;&lt;/b&gt;happinessMeter() = 100&lt;br&gt;rows() = 16&lt;br&gt;leaveNegReview()&lt;br&gt;refuseMove()&lt;br&gt;violentFlyer()&lt;br&gt;delayedFlight = 0" style="whiteSpace=wrap;html=1;" parent="1" vertex="1">
                    <mxGeometry x="55" width="500" height="120" as="geometry"/>
                </mxCell>
                <mxCell id="5" value="&lt;b&gt;Comfort+&lt;br&gt;&lt;/b&gt;leaveNegReview = 50&lt;br&gt;refuseMove = 20&lt;br&gt;violentFlyer = 5&lt;b&gt;&lt;br&gt;&lt;/b&gt;" style="whiteSpace=wrap;html=1;" parent="1" vertex="1">
                    <mxGeometry x="160" y="320" width="290" height="100" as="geometry"/>
                </mxCell>
                <mxCell id="6" value="&lt;b&gt;Economy&lt;/b&gt;&lt;br&gt;chuckNorris() = 5&lt;br&gt;leaveNegReview = 10&lt;br&gt;refuseMove = 10&lt;br&gt;violentFlyer = 15" style="whiteSpace=wrap;html=1;" parent="1" vertex="1">
                    <mxGeometry x="160" y="430" width="290" height="90" as="geometry"/>
                </mxCell>
                <mxCell id="34" value="" style="shape=ext;double=1;rounded=0;whiteSpace=wrap;html=1;fontSize=14;fillColor=#60a917;fontColor=#ffffff;strokeColor=#2D7600;" parent="1" vertex="1">
                    <mxGeometry x="100" y="640" width="70" height="46" as="geometry"/>
                </mxCell>
                <mxCell id="35" value="" style="shape=ext;double=1;rounded=0;whiteSpace=wrap;html=1;fontSize=14;fillColor=#60a917;fontColor=#ffffff;strokeColor=#2D7600;" parent="1" vertex="1">
                    <mxGeometry x="260" y="640" width="70" height="46" as="geometry"/>
                </mxCell>
                <mxCell id="36" value="" style="shape=ext;double=1;rounded=0;whiteSpace=wrap;html=1;fontSize=14;fillColor=#60a917;fontColor=#ffffff;strokeColor=#2D7600;" parent="1" vertex="1">
                    <mxGeometry x="180" y="640" width="70" height="46" as="geometry"/>
                </mxCell>
                <mxCell id="37" value="" style="shape=ext;double=1;rounded=0;whiteSpace=wrap;html=1;fontSize=14;fillColor=#60a917;fontColor=#ffffff;strokeColor=#2D7600;" parent="1" vertex="1">
                    <mxGeometry x="340" y="640" width="70" height="46" as="geometry"/>
                </mxCell>
                <mxCell id="52" value="" style="shape=ext;double=1;rounded=0;whiteSpace=wrap;html=1;fontSize=14;fillColor=#60a917;fontColor=#ffffff;strokeColor=#2D7600;" parent="1" vertex="1">
                    <mxGeometry x="100" y="710" width="70" height="46" as="geometry"/>
                </mxCell>
                <mxCell id="53" value="" style="shape=ext;double=1;rounded=0;whiteSpace=wrap;html=1;fontSize=14;fillColor=#60a917;fontColor=#ffffff;strokeColor=#2D7600;" parent="1" vertex="1">
                    <mxGeometry x="260" y="710" width="70" height="46" as="geometry"/>
                </mxCell>
                <mxCell id="54" value="" style="shape=ext;double=1;rounded=0;whiteSpace=wrap;html=1;fontSize=14;fillColor=#60a917;fontColor=#ffffff;strokeColor=#2D7600;" parent="1" vertex="1">
                    <mxGeometry x="180" y="710" width="70" height="46" as="geometry"/>
                </mxCell>
                <mxCell id="55" value="" style="shape=ext;double=1;rounded=0;whiteSpace=wrap;html=1;fontSize=14;fillColor=#60a917;fontColor=#ffffff;strokeColor=#2D7600;" parent="1" vertex="1">
                    <mxGeometry x="340" y="710" width="70" height="46" as="geometry"/>
                </mxCell>
                <mxCell id="56" value="" style="shape=ext;double=1;rounded=0;whiteSpace=wrap;html=1;fontSize=14;fillColor=#1ba1e2;fontColor=#ffffff;strokeColor=#006EAF;" parent="1" vertex="1">
                    <mxGeometry x="100" y="780" width="70" height="46" as="geometry"/>
                </mxCell>
                <mxCell id="57" value="" style="shape=ext;double=1;rounded=0;whiteSpace=wrap;html=1;fontSize=14;fillColor=#1ba1e2;fontColor=#ffffff;strokeColor=#006EAF;" parent="1" vertex="1">
                    <mxGeometry x="260" y="780" width="70" height="46" as="geometry"/>
                </mxCell>
                <mxCell id="58" value="" style="shape=ext;double=1;rounded=0;whiteSpace=wrap;html=1;fontSize=14;fillColor=#1ba1e2;fontColor=#ffffff;strokeColor=#006EAF;" parent="1" vertex="1">
                    <mxGeometry x="180" y="780" width="70" height="46" as="geometry"/>
                </mxCell>
                <mxCell id="59" value="" style="shape=ext;double=1;rounded=0;whiteSpace=wrap;html=1;fontSize=14;fillColor=#1ba1e2;fontColor=#ffffff;strokeColor=#006EAF;" parent="1" vertex="1">
                    <mxGeometry x="340" y="780" width="70" height="46" as="geometry"/>
                </mxCell>
                <mxCell id="60" value="" style="shape=ext;double=1;rounded=0;whiteSpace=wrap;html=1;fontSize=14;fillColor=#1ba1e2;fontColor=#ffffff;strokeColor=#006EAF;" parent="1" vertex="1">
                    <mxGeometry x="100" y="850" width="70" height="46" as="geometry"/>
                </mxCell>
                <mxCell id="61" value="" style="shape=ext;double=1;rounded=0;whiteSpace=wrap;html=1;fontSize=14;fillColor=#1ba1e2;fontColor=#ffffff;strokeColor=#006EAF;" parent="1" vertex="1">
                    <mxGeometry x="260" y="850" width="70" height="46" as="geometry"/>
                </mxCell>
                <mxCell id="62" value="" style="shape=ext;double=1;rounded=0;whiteSpace=wrap;html=1;fontSize=14;fillColor=#1ba1e2;fontColor=#ffffff;strokeColor=#006EAF;" parent="1" vertex="1">
                    <mxGeometry x="180" y="850" width="70" height="46" as="geometry"/>
                </mxCell>
                <mxCell id="63" value="" style="shape=ext;double=1;rounded=0;whiteSpace=wrap;html=1;fontSize=14;fillColor=#1ba1e2;fontColor=#ffffff;strokeColor=#006EAF;" parent="1" vertex="1">
                    <mxGeometry x="340" y="850" width="70" height="46" as="geometry"/>
                </mxCell>
                <mxCell id="64" value="" style="shape=ext;double=1;rounded=0;whiteSpace=wrap;html=1;fontSize=14;fillColor=#1ba1e2;fontColor=#ffffff;strokeColor=#006EAF;" parent="1" vertex="1">
                    <mxGeometry x="100" y="920" width="70" height="46" as="geometry"/>
                </mxCell>
                <mxCell id="65" value="" style="shape=ext;double=1;rounded=0;whiteSpace=wrap;html=1;fontSize=14;fillColor=#1ba1e2;fontColor=#ffffff;strokeColor=#006EAF;" parent="1" vertex="1">
                    <mxGeometry x="260" y="920" width="70" height="46" as="geometry"/>
                </mxCell>
                <mxCell id="66" value="" style="shape=ext;double=1;rounded=0;whiteSpace=wrap;html=1;fontSize=14;fillColor=#1ba1e2;fontColor=#ffffff;strokeColor=#006EAF;" parent="1" vertex="1">
                    <mxGeometry x="180" y="920" width="70" height="46" as="geometry"/>
                </mxCell>
                <mxCell id="67" value="" style="shape=ext;double=1;rounded=0;whiteSpace=wrap;html=1;fontSize=14;fillColor=#1ba1e2;fontColor=#ffffff;strokeColor=#006EAF;" parent="1" vertex="1">
                    <mxGeometry x="340" y="920" width="70" height="46" as="geometry"/>
                </mxCell>
                <mxCell id="68" value="" style="shape=ext;double=1;rounded=0;whiteSpace=wrap;html=1;fontSize=14;fillColor=#d80073;fontColor=#ffffff;strokeColor=#A50040;" parent="1" vertex="1">
                    <mxGeometry x="100" y="990" width="70" height="46" as="geometry"/>
                </mxCell>
                <mxCell id="69" value="" style="shape=ext;double=1;rounded=0;whiteSpace=wrap;html=1;fontSize=14;fillColor=#d80073;fontColor=#ffffff;strokeColor=#A50040;" parent="1" vertex="1">
                    <mxGeometry x="260" y="990" width="70" height="46" as="geometry"/>
                </mxCell>
                <mxCell id="70" value="" style="shape=ext;double=1;rounded=0;whiteSpace=wrap;html=1;fontSize=14;fillColor=#d80073;fontColor=#ffffff;strokeColor=#A50040;" parent="1" vertex="1">
                    <mxGeometry x="180" y="990" width="70" height="46" as="geometry"/>
                </mxCell>
                <mxCell id="71" value="" style="shape=ext;double=1;rounded=0;whiteSpace=wrap;html=1;fontSize=14;fillColor=#d80073;fontColor=#ffffff;strokeColor=#A50040;" parent="1" vertex="1">
                    <mxGeometry x="340" y="990" width="70" height="46" as="geometry"/>
                </mxCell>
                <mxCell id="72" value="" style="shape=ext;double=1;rounded=0;whiteSpace=wrap;html=1;fontSize=14;fillColor=#d80073;fontColor=#ffffff;strokeColor=#A50040;" parent="1" vertex="1">
                    <mxGeometry x="100" y="1070" width="70" height="46" as="geometry"/>
                </mxCell>
                <mxCell id="73" value="" style="shape=ext;double=1;rounded=0;whiteSpace=wrap;html=1;fontSize=14;fillColor=#d80073;fontColor=#ffffff;strokeColor=#A50040;" parent="1" vertex="1">
                    <mxGeometry x="260" y="1070" width="70" height="46" as="geometry"/>
                </mxCell>
                <mxCell id="74" value="" style="shape=ext;double=1;rounded=0;whiteSpace=wrap;html=1;fontSize=14;fillColor=#d80073;fontColor=#ffffff;strokeColor=#A50040;" parent="1" vertex="1">
                    <mxGeometry x="180" y="1070" width="70" height="46" as="geometry"/>
                </mxCell>
                <mxCell id="75" value="" style="shape=ext;double=1;rounded=0;whiteSpace=wrap;html=1;fontSize=14;fillColor=#d80073;fontColor=#ffffff;strokeColor=#A50040;" parent="1" vertex="1">
                    <mxGeometry x="340" y="1070" width="70" height="46" as="geometry"/>
                </mxCell>
                <mxCell id="76" value="" style="shape=ext;double=1;rounded=0;whiteSpace=wrap;html=1;fontSize=14;fillColor=#d80073;fontColor=#ffffff;strokeColor=#A50040;" parent="1" vertex="1">
                    <mxGeometry x="100" y="1140" width="70" height="46" as="geometry"/>
                </mxCell>
                <mxCell id="77" value="" style="shape=ext;double=1;rounded=0;whiteSpace=wrap;html=1;fontSize=14;fillColor=#d80073;fontColor=#ffffff;strokeColor=#A50040;" parent="1" vertex="1">
                    <mxGeometry x="260" y="1140" width="70" height="46" as="geometry"/>
                </mxCell>
                <mxCell id="78" value="" style="shape=ext;double=1;rounded=0;whiteSpace=wrap;html=1;fontSize=14;fillColor=#d80073;fontColor=#ffffff;strokeColor=#A50040;" parent="1" vertex="1">
                    <mxGeometry x="180" y="1140" width="70" height="46" as="geometry"/>
                </mxCell>
                <mxCell id="79" value="" style="shape=ext;double=1;rounded=0;whiteSpace=wrap;html=1;fontSize=14;fillColor=#d80073;fontColor=#ffffff;strokeColor=#A50040;" parent="1" vertex="1">
                    <mxGeometry x="340" y="1140" width="70" height="46" as="geometry"/>
                </mxCell>
                <mxCell id="80" value="" style="shape=ext;double=1;rounded=0;whiteSpace=wrap;html=1;fontSize=14;fillColor=#d80073;fontColor=#ffffff;strokeColor=#A50040;" parent="1" vertex="1">
                    <mxGeometry x="100" y="1220" width="70" height="46" as="geometry"/>
                </mxCell>
                <mxCell id="81" value="" style="shape=ext;double=1;rounded=0;whiteSpace=wrap;html=1;fontSize=14;fillColor=#d80073;fontColor=#ffffff;strokeColor=#A50040;" parent="1" vertex="1">
                    <mxGeometry x="260" y="1220" width="70" height="46" as="geometry"/>
                </mxCell>
                <mxCell id="82" value="" style="shape=ext;double=1;rounded=0;whiteSpace=wrap;html=1;fontSize=14;fillColor=#d80073;fontColor=#ffffff;strokeColor=#A50040;" parent="1" vertex="1">
                    <mxGeometry x="180" y="1220" width="70" height="46" as="geometry"/>
                </mxCell>
                <mxCell id="83" value="" style="shape=ext;double=1;rounded=0;whiteSpace=wrap;html=1;fontSize=14;fillColor=#d80073;fontColor=#ffffff;strokeColor=#A50040;" parent="1" vertex="1">
                    <mxGeometry x="340" y="1220" width="70" height="46" as="geometry"/>
                </mxCell>
                <mxCell id="84" value="" style="shape=ext;double=1;rounded=0;whiteSpace=wrap;html=1;fontSize=14;fillColor=#d80073;fontColor=#ffffff;strokeColor=#A50040;" parent="1" vertex="1">
                    <mxGeometry x="100" y="1290" width="70" height="46" as="geometry"/>
                </mxCell>
                <mxCell id="85" value="" style="shape=ext;double=1;rounded=0;whiteSpace=wrap;html=1;fontSize=14;fillColor=#d80073;fontColor=#ffffff;strokeColor=#A50040;" parent="1" vertex="1">
                    <mxGeometry x="260" y="1290" width="70" height="46" as="geometry"/>
                </mxCell>
                <mxCell id="86" value="" style="shape=ext;double=1;rounded=0;whiteSpace=wrap;html=1;fontSize=14;fillColor=#d80073;fontColor=#ffffff;strokeColor=#A50040;" parent="1" vertex="1">
                    <mxGeometry x="180" y="1290" width="70" height="46" as="geometry"/>
                </mxCell>
                <mxCell id="87" value="" style="shape=ext;double=1;rounded=0;whiteSpace=wrap;html=1;fontSize=14;fillColor=#d80073;fontColor=#ffffff;strokeColor=#A50040;" parent="1" vertex="1">
                    <mxGeometry x="340" y="1290" width="70" height="46" as="geometry"/>
                </mxCell>
                <mxCell id="88" value="" style="shape=ext;double=1;rounded=0;whiteSpace=wrap;html=1;fontSize=14;fillColor=#fa6800;fontColor=#000000;strokeColor=#C73500;" parent="1" vertex="1">
                    <mxGeometry x="100" y="1360" width="70" height="46" as="geometry"/>
                </mxCell>
                <mxCell id="89" value="" style="shape=ext;double=1;rounded=0;whiteSpace=wrap;html=1;fontSize=14;fillColor=#fa6800;fontColor=#000000;strokeColor=#C73500;" parent="1" vertex="1">
                    <mxGeometry x="260" y="1360" width="70" height="46" as="geometry"/>
                </mxCell>
                <mxCell id="90" value="" style="shape=ext;double=1;rounded=0;whiteSpace=wrap;html=1;fontSize=14;fillColor=#fa6800;fontColor=#000000;strokeColor=#C73500;" parent="1" vertex="1">
                    <mxGeometry x="180" y="1360" width="70" height="46" as="geometry"/>
                </mxCell>
                <mxCell id="91" value="" style="shape=ext;double=1;rounded=0;whiteSpace=wrap;html=1;fontSize=14;fillColor=#fa6800;fontColor=#000000;strokeColor=#C73500;" parent="1" vertex="1">
                    <mxGeometry x="340" y="1360" width="70" height="46" as="geometry"/>
                </mxCell>
                <mxCell id="92" value="" style="shape=ext;double=1;rounded=0;whiteSpace=wrap;html=1;fontSize=14;fillColor=#fa6800;fontColor=#000000;strokeColor=#C73500;" parent="1" vertex="1">
                    <mxGeometry x="100" y="1440" width="70" height="46" as="geometry"/>
                </mxCell>
                <mxCell id="93" value="" style="shape=ext;double=1;rounded=0;whiteSpace=wrap;html=1;fontSize=14;fillColor=#fa6800;fontColor=#000000;strokeColor=#C73500;" parent="1" vertex="1">
                    <mxGeometry x="260" y="1440" width="70" height="46" as="geometry"/>
                </mxCell>
                <mxCell id="94" value="" style="shape=ext;double=1;rounded=0;whiteSpace=wrap;html=1;fontSize=14;fillColor=#fa6800;fontColor=#000000;strokeColor=#C73500;" parent="1" vertex="1">
                    <mxGeometry x="180" y="1440" width="70" height="46" as="geometry"/>
                </mxCell>
                <mxCell id="95" value="" style="shape=ext;double=1;rounded=0;whiteSpace=wrap;html=1;fontSize=14;fillColor=#fa6800;fontColor=#000000;strokeColor=#C73500;" parent="1" vertex="1">
                    <mxGeometry x="340" y="1440" width="70" height="46" as="geometry"/>
                </mxCell>
                <mxCell id="96" value="" style="shape=ext;double=1;rounded=0;whiteSpace=wrap;html=1;fontSize=14;fillColor=#fa6800;fontColor=#000000;strokeColor=#C73500;" parent="1" vertex="1">
                    <mxGeometry x="100" y="1510" width="70" height="46" as="geometry"/>
                </mxCell>
                <mxCell id="97" value="" style="shape=ext;double=1;rounded=0;whiteSpace=wrap;html=1;fontSize=14;fillColor=#fa6800;fontColor=#000000;strokeColor=#C73500;" parent="1" vertex="1">
                    <mxGeometry x="260" y="1510" width="70" height="46" as="geometry"/>
                </mxCell>
                <mxCell id="98" value="" style="shape=ext;double=1;rounded=0;whiteSpace=wrap;html=1;fontSize=14;fillColor=#fa6800;fontColor=#000000;strokeColor=#C73500;" parent="1" vertex="1">
                    <mxGeometry x="180" y="1510" width="70" height="46" as="geometry"/>
                </mxCell>
                <mxCell id="99" value="" style="shape=ext;double=1;rounded=0;whiteSpace=wrap;html=1;fontSize=14;fillColor=#fa6800;fontColor=#000000;strokeColor=#C73500;" parent="1" vertex="1">
                    <mxGeometry x="340" y="1510" width="70" height="46" as="geometry"/>
                </mxCell>
                <mxCell id="100" value="" style="shape=ext;double=1;rounded=0;whiteSpace=wrap;html=1;fontSize=14;fillColor=#fa6800;fontColor=#000000;strokeColor=#C73500;" parent="1" vertex="1">
                    <mxGeometry x="100" y="1580" width="70" height="46" as="geometry"/>
                </mxCell>
                <mxCell id="101" value="" style="shape=ext;double=1;rounded=0;whiteSpace=wrap;html=1;fontSize=14;fillColor=#fa6800;fontColor=#000000;strokeColor=#C73500;" parent="1" vertex="1">
                    <mxGeometry x="260" y="1580" width="70" height="46" as="geometry"/>
                </mxCell>
                <mxCell id="102" value="" style="shape=ext;double=1;rounded=0;whiteSpace=wrap;html=1;fontSize=14;fillColor=#fa6800;fontColor=#000000;strokeColor=#C73500;" parent="1" vertex="1">
                    <mxGeometry x="180" y="1580" width="70" height="46" as="geometry"/>
                </mxCell>
                <mxCell id="103" value="" style="shape=ext;double=1;rounded=0;whiteSpace=wrap;html=1;fontSize=14;fillColor=#fa6800;fontColor=#000000;strokeColor=#C73500;" parent="1" vertex="1">
                    <mxGeometry x="340" y="1580" width="70" height="46" as="geometry"/>
                </mxCell>
                <mxCell id="104" value="" style="shape=ext;double=1;rounded=0;whiteSpace=wrap;html=1;fontSize=14;fillColor=#fa6800;fontColor=#000000;strokeColor=#C73500;" parent="1" vertex="1">
                    <mxGeometry x="100" y="1650" width="70" height="46" as="geometry"/>
                </mxCell>
                <mxCell id="105" value="" style="shape=ext;double=1;rounded=0;whiteSpace=wrap;html=1;fontSize=14;fillColor=#fa6800;fontColor=#000000;strokeColor=#C73500;" parent="1" vertex="1">
                    <mxGeometry x="260" y="1650" width="70" height="46" as="geometry"/>
                </mxCell>
                <mxCell id="106" value="" style="shape=ext;double=1;rounded=0;whiteSpace=wrap;html=1;fontSize=14;fillColor=#fa6800;fontColor=#000000;strokeColor=#C73500;" parent="1" vertex="1">
                    <mxGeometry x="180" y="1650" width="70" height="46" as="geometry"/>
                </mxCell>
                <mxCell id="107" value="" style="shape=ext;double=1;rounded=0;whiteSpace=wrap;html=1;fontSize=14;fillColor=#fa6800;fontColor=#000000;strokeColor=#C73500;" parent="1" vertex="1">
                    <mxGeometry x="340" y="1650" width="70" height="46" as="geometry"/>
                </mxCell>
                <mxCell id="108" value="" style="shape=ext;double=1;rounded=0;whiteSpace=wrap;html=1;fontSize=14;fillColor=#fa6800;fontColor=#000000;strokeColor=#C73500;" parent="1" vertex="1">
                    <mxGeometry x="100" y="1720" width="70" height="46" as="geometry"/>
                </mxCell>
                <mxCell id="109" value="" style="shape=ext;double=1;rounded=0;whiteSpace=wrap;html=1;fontSize=14;fillColor=#fa6800;fontColor=#000000;strokeColor=#C73500;" parent="1" vertex="1">
                    <mxGeometry x="260" y="1720" width="70" height="46" as="geometry"/>
                </mxCell>
                <mxCell id="110" value="" style="shape=ext;double=1;rounded=0;whiteSpace=wrap;html=1;fontSize=14;fillColor=#fa6800;fontColor=#000000;strokeColor=#C73500;" parent="1" vertex="1">
                    <mxGeometry x="180" y="1720" width="70" height="46" as="geometry"/>
                </mxCell>
                <mxCell id="111" value="" style="shape=ext;double=1;rounded=0;whiteSpace=wrap;html=1;fontSize=14;fillColor=#fa6800;fontColor=#000000;strokeColor=#C73500;" parent="1" vertex="1">
                    <mxGeometry x="340" y="1720" width="70" height="46" as="geometry"/>
                </mxCell>
                <mxCell id="114" value="1" style="text;strokeColor=none;fillColor=none;html=1;fontSize=24;fontStyle=1;verticalAlign=middle;align=center;" parent="1" vertex="1">
                    <mxGeometry x="-10" y="643" width="100" height="40" as="geometry"/>
                </mxCell>
                <mxCell id="115" value="2" style="text;strokeColor=none;fillColor=none;html=1;fontSize=24;fontStyle=1;verticalAlign=middle;align=center;" parent="1" vertex="1">
                    <mxGeometry x="-10" y="710" width="100" height="40" as="geometry"/>
                </mxCell>
                <mxCell id="116" value="3" style="text;strokeColor=none;fillColor=none;html=1;fontSize=24;fontStyle=1;verticalAlign=middle;align=center;" parent="1" vertex="1">
                    <mxGeometry x="-10" y="786" width="100" height="40" as="geometry"/>
                </mxCell>
                <mxCell id="117" value="4" style="text;strokeColor=none;fillColor=none;html=1;fontSize=24;fontStyle=1;verticalAlign=middle;align=center;" parent="1" vertex="1">
                    <mxGeometry x="-10" y="853" width="100" height="40" as="geometry"/>
                </mxCell>
                <mxCell id="118" value="5" style="text;strokeColor=none;fillColor=none;html=1;fontSize=24;fontStyle=1;verticalAlign=middle;align=center;" parent="1" vertex="1">
                    <mxGeometry x="-10" y="923" width="100" height="40" as="geometry"/>
                </mxCell>
                <mxCell id="119" value="6" style="text;strokeColor=none;fillColor=none;html=1;fontSize=24;fontStyle=1;verticalAlign=middle;align=center;" parent="1" vertex="1">
                    <mxGeometry x="-10" y="996" width="100" height="40" as="geometry"/>
                </mxCell>
                <mxCell id="120" value="7" style="text;strokeColor=none;fillColor=none;html=1;fontSize=24;fontStyle=1;verticalAlign=middle;align=center;" parent="1" vertex="1">
                    <mxGeometry x="-10" y="1076" width="100" height="40" as="geometry"/>
                </mxCell>
                <mxCell id="121" value="8" style="text;strokeColor=none;fillColor=none;html=1;fontSize=24;fontStyle=1;verticalAlign=middle;align=center;" parent="1" vertex="1">
                    <mxGeometry x="-10" y="1140" width="100" height="40" as="geometry"/>
                </mxCell>
                <mxCell id="122" value="9" style="text;strokeColor=none;fillColor=none;html=1;fontSize=24;fontStyle=1;verticalAlign=middle;align=center;" parent="1" vertex="1">
                    <mxGeometry x="-10" y="1223" width="100" height="40" as="geometry"/>
                </mxCell>
                <mxCell id="123" value="10" style="text;strokeColor=none;fillColor=none;html=1;fontSize=24;fontStyle=1;verticalAlign=middle;align=center;" parent="1" vertex="1">
                    <mxGeometry x="-10" y="1296" width="100" height="40" as="geometry"/>
                </mxCell>
                <mxCell id="124" value="11" style="text;strokeColor=none;fillColor=none;html=1;fontSize=24;fontStyle=1;verticalAlign=middle;align=center;" parent="1" vertex="1">
                    <mxGeometry x="-10" y="1360" width="100" height="40" as="geometry"/>
                </mxCell>
                <mxCell id="127" value="12" style="text;strokeColor=none;fillColor=none;html=1;fontSize=24;fontStyle=1;verticalAlign=middle;align=center;" parent="1" vertex="1">
                    <mxGeometry x="-10" y="1446" width="100" height="40" as="geometry"/>
                </mxCell>
                <mxCell id="128" value="13" style="text;strokeColor=none;fillColor=none;html=1;fontSize=24;fontStyle=1;verticalAlign=middle;align=center;" parent="1" vertex="1">
                    <mxGeometry x="-10" y="1530" width="100" height="40" as="geometry"/>
                </mxCell>
                <mxCell id="129" value="14" style="text;strokeColor=none;fillColor=none;html=1;fontSize=24;fontStyle=1;verticalAlign=middle;align=center;" parent="1" vertex="1">
                    <mxGeometry x="-10" y="1586" width="100" height="40" as="geometry"/>
                </mxCell>
                <mxCell id="130" value="15" style="text;strokeColor=none;fillColor=none;html=1;fontSize=24;fontStyle=1;verticalAlign=middle;align=center;" parent="1" vertex="1">
                    <mxGeometry x="-10" y="1656" width="100" height="40" as="geometry"/>
                </mxCell>
                <mxCell id="131" value="16" style="text;strokeColor=none;fillColor=none;html=1;fontSize=24;fontStyle=1;verticalAlign=middle;align=center;" parent="1" vertex="1">
                    <mxGeometry x="-10" y="1720" width="100" height="40" as="geometry"/>
                </mxCell>
                <mxCell id="132" value="A" style="text;strokeColor=none;fillColor=none;html=1;fontSize=24;fontStyle=1;verticalAlign=middle;align=center;" parent="1" vertex="1">
                    <mxGeometry x="85" y="580" width="100" height="40" as="geometry"/>
                </mxCell>
                <mxCell id="133" value="B" style="text;strokeColor=none;fillColor=none;html=1;fontSize=24;fontStyle=1;verticalAlign=middle;align=center;" parent="1" vertex="1">
                    <mxGeometry x="165" y="580" width="100" height="40" as="geometry"/>
                </mxCell>
                <mxCell id="134" value="C" style="text;strokeColor=none;fillColor=none;html=1;fontSize=24;fontStyle=1;verticalAlign=middle;align=center;" parent="1" vertex="1">
                    <mxGeometry x="245" y="580" width="100" height="40" as="geometry"/>
                </mxCell>
                <mxCell id="135" value="D" style="text;strokeColor=none;fillColor=none;html=1;fontSize=24;fontStyle=1;verticalAlign=middle;align=center;" parent="1" vertex="1">
                    <mxGeometry x="325" y="580" width="100" height="40" as="geometry"/>
                </mxCell>
                <mxCell id="136" value="" style="shape=curlyBracket;whiteSpace=wrap;html=1;rounded=1;flipH=1;" parent="1" vertex="1">
                    <mxGeometry x="430" y="636" width="20" height="120" as="geometry"/>
                </mxCell>
                <mxCell id="138" value="" style="shape=curlyBracket;whiteSpace=wrap;html=1;rounded=1;flipH=1;" parent="1" vertex="1">
                    <mxGeometry x="430" y="780" width="20" height="180" as="geometry"/>
                </mxCell>
                <mxCell id="139" value="" style="shape=curlyBracket;whiteSpace=wrap;html=1;rounded=1;flipH=1;" parent="1" vertex="1">
                    <mxGeometry x="425" y="996" width="20" height="334" as="geometry"/>
                </mxCell>
                <mxCell id="140" value="" style="shape=curlyBracket;whiteSpace=wrap;html=1;rounded=1;flipH=1;" parent="1" vertex="1">
                    <mxGeometry x="430" y="1360" width="20" height="410" as="geometry"/>
                </mxCell>
                <mxCell id="141" value="8" style="text;strokeColor=none;fillColor=none;html=1;fontSize=24;fontStyle=1;verticalAlign=middle;align=center;" parent="1" vertex="1">
                    <mxGeometry x="470" y="683" width="100" height="40" as="geometry"/>
                </mxCell>
                <mxCell id="142" value="12" style="text;strokeColor=none;fillColor=none;html=1;fontSize=24;fontStyle=1;verticalAlign=middle;align=center;" parent="1" vertex="1">
                    <mxGeometry x="470" y="853" width="100" height="40" as="geometry"/>
                </mxCell>
                <mxCell id="143" value="20" style="text;strokeColor=none;fillColor=none;html=1;fontSize=24;fontStyle=1;verticalAlign=middle;align=center;" parent="1" vertex="1">
                    <mxGeometry x="470" y="1110" width="100" height="40" as="geometry"/>
                </mxCell>
                <mxCell id="144" value="24" style="text;strokeColor=none;fillColor=none;html=1;fontSize=24;fontStyle=1;verticalAlign=middle;align=center;" parent="1" vertex="1">
                    <mxGeometry x="470" y="1546" width="100" height="40" as="geometry"/>
                </mxCell>
                <mxCell id="145" value="&lt;h1&gt;First class&lt;/h1&gt;&lt;p&gt;8 seats * .8 = 6.4 seats : google -1pt&lt;/p&gt;&lt;p&gt;&lt;span style=&quot;white-space: pre&quot;&gt;&#9;&lt;/span&gt;max = 7 pts min = 1 pts&lt;br&gt;&lt;/p&gt;&lt;p&gt;8 seats * .5 = 4 seats : move -3pt&lt;/p&gt;&lt;p&gt;&lt;span style=&quot;white-space: pre&quot;&gt;&#9;&lt;/span&gt;max = 12 pts min = 3 pts&lt;br&gt;&lt;/p&gt;&lt;p&gt;8 seats * .01 = .08 seats : punch -10pt&lt;/p&gt;&lt;p&gt;&lt;span style=&quot;white-space: pre&quot;&gt;&#9;&lt;/span&gt;max = 10 pts min = 10 pts&lt;br&gt;&lt;/p&gt;" style="text;html=1;strokeColor=none;fillColor=none;spacing=5;spacingTop=-20;whiteSpace=wrap;overflow=hidden;rounded=0;" vertex="1" parent="1">
                    <mxGeometry x="560" y="600" width="220" height="210" as="geometry"/>
                </mxCell>
                <mxCell id="146" value="&lt;h1&gt;Business class&lt;/h1&gt;&lt;p&gt;12 seats * .7 = 8.4 seats : google 1pt&lt;/p&gt;&lt;p&gt;&lt;span style=&quot;white-space: pre&quot;&gt;&#9;&lt;/span&gt;max = 9 pts min = 1 pts&lt;br&gt;&lt;/p&gt;&lt;p&gt;12 seats * .3 = 3.6 seats : move -3 pt&lt;/p&gt;&lt;p&gt;&lt;span style=&quot;white-space: pre&quot;&gt;&#9;&lt;/span&gt;max = 12 pts min = 3 pt&lt;br&gt;&lt;/p&gt;&lt;p&gt;12 seats * .02 = .24 seats : punch -10 pt&lt;/p&gt;&lt;p&gt;&lt;span style=&quot;white-space: pre&quot;&gt;&#9;&lt;/span&gt;max = 10 pts min = 10 pts&lt;br&gt;&lt;/p&gt;" style="text;html=1;strokeColor=none;fillColor=none;spacing=5;spacingTop=-20;whiteSpace=wrap;overflow=hidden;rounded=0;" vertex="1" parent="1">
                    <mxGeometry x="560" y="833" width="230" height="220" as="geometry"/>
                </mxCell>
                <mxCell id="148" value="&lt;h1&gt;Comfort +&lt;/h1&gt;&lt;p&gt;20 seats * .5 = 10 seats : google -1pt&lt;/p&gt;&lt;p&gt;&lt;span style=&quot;white-space: pre&quot;&gt;&#9;&lt;/span&gt;max = 10 pts min = 1 pts&lt;/p&gt;&lt;p&gt;20 seats * .2 = 4 seats : move -3pt&lt;/p&gt;&lt;p&gt;&lt;span style=&quot;white-space: pre&quot;&gt;&#9;&lt;/span&gt;max = 12 pts min = 3 pts&lt;br&gt;&lt;/p&gt;&lt;p&gt;20 seats * .05 = 1 seats punch -10pt&lt;/p&gt;&lt;p&gt;&lt;span style=&quot;white-space: pre&quot;&gt;&#9;&lt;/span&gt;max = 10 min = 10&lt;br&gt;&lt;/p&gt;" style="text;html=1;strokeColor=none;fillColor=none;spacing=5;spacingTop=-20;whiteSpace=wrap;overflow=hidden;rounded=0;" vertex="1" parent="1">
                    <mxGeometry x="560" y="1100" width="230" height="210" as="geometry"/>
                </mxCell>
                <mxCell id="149" value="&lt;h1&gt;Economy class&lt;/h1&gt;&lt;p&gt;24 seats * .1 = 2.4 seats : google -1pt&lt;/p&gt;&lt;p&gt;&amp;nbsp;&lt;span style=&quot;white-space: pre&quot;&gt;&#9;&lt;/span&gt;max = 2 pts min = 1 pts&lt;/p&gt;&lt;p&gt;24 seats * .1 = 2.4 seats : move -3pt&lt;/p&gt;&lt;p&gt;&lt;span style=&quot;white-space: pre&quot;&gt;&#9;&lt;/span&gt;max = 9 pts min = 3&lt;br&gt;&lt;/p&gt;&lt;p&gt;24 seats * .15 = 3.6 seats : punch -10pt&lt;/p&gt;&lt;p&gt;&lt;span style=&quot;white-space: pre&quot;&gt;&#9;&lt;/span&gt;max = 40 pts min = 10 pts&amp;nbsp;&lt;/p&gt;" style="text;html=1;strokeColor=none;fillColor=none;spacing=5;spacingTop=-20;whiteSpace=wrap;overflow=hidden;rounded=0;" vertex="1" parent="1">
                    <mxGeometry x="560" y="1520" width="250" height="230" as="geometry"/>
                </mxCell>
            </root>
        </mxGraphModel>
    </diagram>
</mxfile>